<svg xmlns="http://www.w3.org/2000/svg" xmlns:xlink="http://www.w3.org/1999/xlink" width="264.27" height="255" viewBox="0 0 264.27 255">
  <defs>
    <clipPath id="clip-logo-desktop_1">
      <rect width="264.27" height="255"/>
    </clipPath>
  </defs>
  <g id="logo-desktop_1" data-name="logo-desktop – 1" clip-path="url(#clip-logo-desktop_1)">
    <g id="Group_76" data-name="Group 76" transform="translate(-812.5 -162.855)">
      <g id="Group_4" data-name="Group 4" transform="translate(824.002 174.269)">
        <line id="Line_1" data-name="Line 1" x2="213.594" transform="translate(0 222.724)" fill="none" stroke="#fff" stroke-linecap="round" stroke-width="4"/>
        <line id="Line_2" data-name="Line 2" x2="213.594" transform="translate(16.804 233.447)" fill="none" stroke="#fff" stroke-linecap="round" stroke-width="4"/>
        <line id="Line_3" data-name="Line 3" y2="164.28" transform="translate(241.272 34.317)" fill="none" stroke="#fff" stroke-linecap="round" stroke-width="4"/>
        <line id="Line_4" data-name="Line 4" y2="195.109" transform="translate(230.399 26.274)" fill="none" stroke="#fff" stroke-linecap="round" stroke-width="4"/>
        <line id="Line_5" data-name="Line 5" x1="213.594" transform="translate(27.678 10.723)" fill="none" stroke="#fff" stroke-linecap="round" stroke-width="4"/>
        <line id="Line_6" data-name="Line 6" x1="213.594" transform="translate(10.873)" fill="none" stroke="#fff" stroke-linecap="round" stroke-width="4"/>
        <line id="Line_7" data-name="Line 7" y1="163.746" transform="translate(0 34.85)" fill="none" stroke="#fff" stroke-linecap="round" stroke-width="4"/>
        <line id="Line_8" data-name="Line 8" y1="195.109" transform="translate(10.873 12.064)" fill="none" stroke="#fff" stroke-linecap="round" stroke-width="4"/>
      </g>
      <g id="Group_6" data-name="Group 6" transform="translate(873.755 203.003)">
        <g id="Group_5" data-name="Group 5" transform="translate(43.563 0)">
          <line id="Line_9" data-name="Line 9" y2="157.125" transform="translate(9.574 8.905)" fill="none" stroke="#fff" stroke-linecap="round" stroke-width="4"/>
          <path id="Path_3" data-name="Path 3" d="M0,0V175.979" transform="translate(0)" fill="none" stroke="#fff" stroke-linecap="round" stroke-width="4"/>
          <g id="Group_1" data-name="Group 1" transform="translate(17.146 0.279)">
            <path id="Path_2" data-name="Path 2" d="M0,.143C6.387.25,48.359-4.841,54.223,33.382c3.251,25.423-19.563,33.975-37,37.5A165.56,165.56,0,0,1,0,73.377" transform="translate(0 0.029)" fill="none" stroke="#fff" stroke-linecap="round" stroke-width="4"/>
            <path id="Path_4" data-name="Path 4" d="M0,.1c4.848.077,36.706-3.6,41.158,24.015C45,52.676.068,53.179.068,53.179" transform="translate(1.34 9.271)" fill="none" stroke="#fff" stroke-linecap="round" stroke-width="4"/>
          </g>
          <g id="Group_2" data-name="Group 2" transform="translate(17.146 72.621)">
            <path id="Path_2-2" data-name="Path 2" d="M0,.582S76.7-12.44,80.949,43.513c3.474,58.659-76.816,59.11-77.738,59.113" transform="translate(0 0.732)" fill="none" stroke="#fff" stroke-linecap="round" stroke-width="4"/>
          </g>
          <g id="Ellipse_1" data-name="Ellipse 1" transform="translate(15.415 84.24)" fill="none" stroke="#fff" stroke-linecap="round" stroke-width="4">
            <ellipse cx="36.861" cy="35.521" rx="36.861" ry="35.521" stroke="none"/>
            <ellipse cx="36.861" cy="35.521" rx="34.861" ry="33.521" fill="none"/>
          </g>
          <g id="Group_3" data-name="Group 3" transform="translate(35.911 104.286)">
            <line id="Line_10" data-name="Line 10" x2="32.4" y2="32.4" fill="none" stroke="#fff" stroke-linecap="round" stroke-width="6"/>
            <line id="Line_11" data-name="Line 11" x1="32.4" y2="32.4" fill="none" stroke="#fff" stroke-linecap="round" stroke-width="6"/>
          </g>
        </g>
        <text id="AMAZING" transform="translate(30 160.005) rotate(-90)" fill="#fff" font-size="32" font-family="GillSansMT, Gill Sans MT"><tspan x="0" y="0">AMAZING</tspan></text>
      </g>
    </g>
  </g>
</svg>
